<?xml version="1.0" standalone="no"?>
<!DOCTYPE svg PUBLIC "-//W3C//DTD SVG 20010904//EN"
 "http://www.w3.org/TR/2001/REC-SVG-20010904/DTD/svg10.dtd">
<svg version="1.0" xmlns="http://www.w3.org/2000/svg"
 width="16.000000pt" height="16.000000pt" viewBox="0 0 16.000000 16.000000"
 preserveAspectRatio="xMidYMid meet">
<metadata>
Created by potrace 1.11, written by Peter Selinger 2001-2013
</metadata>
<g transform="translate(0.000000,16.000000) scale(0.006154,-0.006154)"
fill="#000000" stroke="none">
<path d="M0 1300 l0 -1300 1300 0 1300 0 0 1300 0 1300 -1300 0 -1300 0 0
-1300z m1445 726 c25 -11 35 -21 35 -37 0 -33 -281 -1292 -290 -1303 -13 -14
-79 3 -89 23 -7 13 30 195 134 665 79 355 147 651 150 656 8 13 20 13 60 -4z
m-405 -258 c0 -10 -67 -106 -150 -213 -82 -107 -150 -196 -150 -198 0 -2 67
-91 150 -198 82 -107 150 -201 150 -208 0 -25 -52 -92 -69 -89 -22 4 -380 469
-380 494 -1 18 344 478 372 497 15 9 77 -59 77 -85z m754 -143 c189 -245 200
-260 193 -279 -12 -30 -371 -486 -383 -486 -19 0 -64 63 -64 89 0 13 60 99
145 209 80 103 145 192 145 199 0 7 -65 96 -145 200 -99 128 -145 196 -145
213 0 14 13 40 30 59 26 28 33 31 46 20 9 -7 89 -108 178 -224z"/>
</g>
</svg>
